<?xml version="1.0" encoding="UTF-8" standalone="no"?>
<!-- Created with Inkscape (http://www.inkscape.org/) -->

<svg
   xmlns:dc="http://purl.org/dc/elements/1.1/"
   xmlns:cc="http://creativecommons.org/ns#"
   xmlns:rdf="http://www.w3.org/1999/02/22-rdf-syntax-ns#"
   xmlns:svg="http://www.w3.org/2000/svg"
   xmlns="http://www.w3.org/2000/svg"
   xmlns:sodipodi="http://sodipodi.sourceforge.net/DTD/sodipodi-0.dtd"
   xmlns:inkscape="http://www.inkscape.org/namespaces/inkscape"
   viewBox="0 0 48 48.000001"
   id="svg4244"
   version="1.1"
   inkscape:version="0.91 r13725"
   sodipodi:docname="icon_standbye_color.svg"
   inkscape:export-filename="D:\Icon-Standbye\ic_orang.png"
   inkscape:export-xdpi="960"
   inkscape:export-ydpi="960">
  <sodipodi:namedview
     id="base"
     pagecolor="#ffffff"
     bordercolor="#666666"
     borderopacity="1.0"
     inkscape:pageopacity="0.0"
     inkscape:pageshadow="2"
     inkscape:zoom="22.627417"
     inkscape:cx="23.457153"
     inkscape:cy="22.551783"
     inkscape:document-units="px"
     inkscape:current-layer="layer1"
     showgrid="false"
     units="px"
     showborder="true"
     inkscape:window-width="2560"
     inkscape:window-height="1377"
     inkscape:window-x="-8"
     inkscape:window-y="-8"
     inkscape:window-maximized="1" />
  <defs
     id="defs4246">
    <filter
       inkscape:collect="always"
       style="color-interpolation-filters:sRGB"
       id="filter4264"
       x="-0.11869871"
       width="1.2373974"
       y="-0.043927341"
       height="1.0878547">
      <feGaussianBlur
         inkscape:collect="always"
         stdDeviation="0.23983866"
         id="feGaussianBlur4266" />
    </filter>
    <filter
       inkscape:collect="always"
       style="color-interpolation-filters:sRGB"
       id="filter4426"
       x="-0.022553333"
       width="1.0451067"
       y="-0.025644978"
       height="1.05129">
      <feGaussianBlur
         inkscape:collect="always"
         stdDeviation="0.22553333"
         id="feGaussianBlur4428" />
    </filter>
    <filter
       inkscape:collect="always"
       style="color-interpolation-filters:sRGB"
       id="filter4434"
       x="-0.024"
       width="1.048"
       y="-0.024"
       height="1.048">
      <feGaussianBlur
         inkscape:collect="always"
         stdDeviation="0.44"
         id="feGaussianBlur4436" />
    </filter>
  </defs>
  <metadata
     id="metadata4249">
    <rdf:RDF>
      <cc:Work
         rdf:about="">
        <dc:format>image/svg+xml</dc:format>
        <dc:type
           rdf:resource="http://purl.org/dc/dcmitype/StillImage" />
        <dc:title />
      </cc:Work>
    </rdf:RDF>
  </metadata>
  <g
     inkscape:label="Background"
     inkscape:groupmode="layer"
     id="layer1"
     transform="translate(0,-1004.3622)"
     style="display:inline">
    <g
       inkscape:groupmode="layer"
       id="layer4"
       inkscape:label="shadow 1">
      <rect
         style="display:inline;opacity:1;fill:#ffffff;fill-opacity:1;stroke:none"
         id="rect4157"
         width="48"
         height="48"
         x="1.0606601"
         y="1004.3622" />
      <circle
         style="display:inline;fill:#000000;fill-opacity:0.3137255;filter:url(#filter4434)"
         id="path4254-0"
         cx="24"
         cy="1030.3622"
         r="22"
         inkscape:export-xdpi="960"
         inkscape:export-ydpi="960" />
    </g>
    <circle
       style="fill:#1d6886;fill-opacity:1"
       id="path4254"
       cx="24"
       cy="1028.3622"
       r="22"
       inkscape:export-xdpi="960"
       inkscape:export-ydpi="960" />
    <g
       style="fill:#000000"
       id="g4314"
       transform="matrix(1.5,0,0,1.5,6,1010.3622)">
      <path
         id="path4"
         d="M 0,0 24,0 24,24 0,24 Z"
         inkscape:connector-curvature="0"
         style="fill:none" />
    </g>
  </g>
  <g
     inkscape:groupmode="layer"
     id="layer3"
     inkscape:label="Icon"
     style="display:inline">
    <g
       inkscape:groupmode="layer"
       id="layer2"
       inkscape:label="shadow"
       style="display:inline">
      <path
         style="display:inline;fill:#000000;fill-opacity:0.3137255;filter:url(#filter4426)"
         sodipodi:nodetypes="ccsssccsssc"
         d="M 19.773333,2.8933333 17.88,4.7866667 C 19.986667,6.48 21.333333,9.08 21.333333,12 21.333333,17.16 17.16,21.333333 12,21.333333 6.84,21.333333 2.6666667,17.16 2.6666667,12 c 0,-2.92 1.3466666,-5.52 3.44,-7.2266667 l -1.88,-1.88 C 1.64,5.0933333 0,8.3466667 0,12 0,18.626667 5.3733333,24 12,24 18.626667,24 24,18.626667 24,12 24,8.3466667 22.36,5.0933333 19.773333,2.8933333 Z"
         id="path4139"
         inkscape:connector-curvature="0"
         transform="matrix(1.5,0,0,1.5,6,8.0001631)" />
      <path
         style="display:inline;fill:#000000;fill-opacity:0.32156863;fill-rule:evenodd;stroke:none;stroke-width:0.66666669px;stroke-linecap:butt;stroke-linejoin:miter;stroke-opacity:1;filter:url(#filter4264)"
         d="m 12.985511,0.05868675 -1.46076,5.33301555 2.651951,0 -1.444745,5.3918557 1.692723,0 -2.352457,2.352457 -2.124936,-2.124936 -0.165318,-0.16532 1.391436,0 1.094894,-4.0862032 -2.692979,0 1.802571,-6.72728845 z"
         id="path4141"
         inkscape:connector-curvature="0"
         sodipodi:nodetypes="ccccccccccccc"
         transform="matrix(1.5,0,0,1.5,6,8.0001631)" />
    </g>
    <g
       id="g4292"
       style="fill:#ffffff">
      <path
         transform="matrix(1.5,0,0,1.5,6,6)"
         style="display:inline;fill:#ff9800;stroke:none;fill-opacity:1"
         sodipodi:nodetypes="ccsssccsssc"
         d="M 19.773333,2.8933333 17.88,4.7866667 C 19.986667,6.48 21.333333,9.08 21.333333,12 21.333333,17.16 17.16,21.333333 12,21.333333 6.84,21.333333 2.6666667,17.16 2.6666667,12 c 0,-2.92 1.3466666,-5.52 3.44,-7.2266667 l -1.88,-1.88 C 1.64,5.0933333 0,8.3466667 0,12 0,18.626667 5.3733333,24 12,24 18.626667,24 24,18.626667 24,12 24,8.3466667 22.36,5.0933333 19.773333,2.8933333 Z"
         id="path6"
         inkscape:connector-curvature="0" />
      <path
         transform="matrix(1.5,0,0,1.5,6,6)"
         style="display:inline;fill:#ff9800;fill-rule:evenodd;stroke:none;stroke-width:0.66666669px;stroke-linecap:butt;stroke-linejoin:miter;stroke-opacity:1;fill-opacity:1"
         d="m 12.985511,0.05868675 -1.46076,5.33301555 2.651951,0 -1.444745,5.3918557 1.692723,0 -2.352457,2.352457 -2.124936,-2.124936 -0.165318,-0.16532 1.391436,0 1.094894,-4.0862032 -2.692979,0 1.802571,-6.72728845 z"
         id="path6336"
         inkscape:connector-curvature="0"
         sodipodi:nodetypes="ccccccccccccc" />
    </g>
  </g>
</svg>
